# xmcd
#
# Track frame offsets:
#	150
#	15302
#	31742
#	49012
#	67303
#	80286
#	94343
#	114587
#	130058
#	146760
#	162945
#	177083
#	196900
#	212215
#	229923
#
# Disc length: 3296 seconds
#
# Revision: 3
# Processed by: cddbd v1.5.2PL0 Copyright (c) Steve Scherf et al.
# Submitted via: audiograbber 1.83.01
#
DISCID=cb0cde0f
DTITLE=Various Artist - SC7594
DYEAR=2002
DGENRE=Karaoke
TTITLE0=George Strait - Love Without End, Amen
TTITLE1=Dixie Chicks, The - There's Your Trouble
TTITLE2=Shania Twain - Honey, I'm Home
TTITLE3=Garth Brooks - Shameless
TTITLE4=George Strait - If I Know Me
TTITLE5=Sammy Kershaw - Cadillac Style
TTITLE6=Wynonna Judd - No One Else On Earth
TTITLE7=Reba McEntire - The Greatest Man I Ever Knew
TTITLE8=Pam Tillis - Maybe It Was Memphis
TTITLE9=John Anderson - Seminole Wind
TTITLE10=Aaron Tippin - Kiss This
TTITLE11=Faith Hill - Breathe
TTITLE12=John Michael Montgomery - Life's A Dance
TTITLE13=Dixie Chicks, The - Wide Open Spaces
TTITLE14=Shania Twain - Love Gets Me Every Time
EXTD=Karaoke
EXTT0=
EXTT1=
EXTT2=
EXTT3=
EXTT4=
EXTT5=
EXTT6=
EXTT7=
EXTT8=
EXTT9=
EXTT10=
EXTT11=
EXTT12=
EXTT13=
EXTT14=
PLAYORDER=
